<svg xmlns="http://www.w3.org/2000/svg" xmlns:xlink="http://www.w3.org/1999/xlink" width="2000" zoomAndPan="magnify" viewBox="0 0 1500 1499.999933" height="2000" preserveAspectRatio="xMidYMid meet" version="1.0"><defs><g/><clipPath id="00e93d6081"><rect x="0" width="977" y="0" height="1486"/></clipPath></defs><rect x="-150" width="1800" fill="#ffffff" y="-149.999993" height="1799.99992" fill-opacity="1"/><rect x="-150" width="1800" fill="#000000" y="-149.999993" height="1799.99992" fill-opacity="1"/><g transform="matrix(1, 0, 0, 1, 208, 0.000000000000112861)"><g clip-path="url(#00e93d6081)"><g fill="#f1f0f0" fill-opacity="1"><g transform="translate(3.18867, 1114.112585)"><g><path d="M 62.875 -410.527344 C 62.875 -167.664062 226.839844 14.792969 470.9375 14.792969 C 713.800781 14.792969 879 -167.664062 879 -410.527344 C 879 -653.394531 713.800781 -835.851562 470.9375 -835.851562 C 226.839844 -835.851562 62.875 -653.394531 62.875 -410.527344 Z M 772.976562 -410.527344 C 772.976562 -219.441406 654.625 -76.433594 470.9375 -76.433594 C 286.015625 -76.433594 168.894531 -219.441406 168.894531 -410.527344 C 168.894531 -602.847656 286.015625 -744.621094 470.9375 -744.621094 C 654.625 -744.621094 772.976562 -602.847656 772.976562 -410.527344 Z M 772.976562 -410.527344 "/></g></g></g><g fill="#f1f0f0" fill-opacity="1"><g transform="translate(752.689629, 1114.112585)"><g><path d="M 73.96875 -55.476562 C 73.96875 -18.492188 104.789062 12.328125 141.773438 12.328125 C 178.757812 12.328125 209.578125 -18.492188 209.578125 -55.476562 C 209.578125 -92.460938 178.757812 -123.28125 141.773438 -123.28125 C 104.789062 -123.28125 73.96875 -92.460938 73.96875 -55.476562 Z M 73.96875 -55.476562 "/></g></g></g></g></g></svg>